<svg id="Layer_1" data-name="Layer 1" xmlns="http://www.w3.org/2000/svg" viewBox="0 0 358.1 159.6"><defs><style>.cls-1{fill:none;}.cls-1,.cls-2,.cls-3,.cls-4{stroke:#000;stroke-miterlimit:10;}.cls-2,.cls-3{fill:#fff;}.cls-3{stroke-width:0.75px;}.cls-4{fill:#231f20;}</style></defs><title>logonameFillWhite</title><path class="cls-1" d="M44.76,135c7.13-5.8,11.17-15.88,3.62-23.26-6.29-6.14-16.23-6.09-24.32-5.65" transform="translate(-15.32 -11.08)"/><rect class="cls-2" x="0.5" y="94.91" width="8.33" height="60.96"/><path class="cls-1" d="M24.28,166.92c8.82.34,18.9-1.93,24.72-9.29,6.09-7.69,3.72-17.85-4.33-22.86" transform="translate(-15.32 -11.08)"/><line class="cls-2" x1="81.17" y1="95.82" x2="56.28" y2="95.85"/><line class="cls-2" x1="56.41" y1="103.63" x2="81.59" y2="103.63"/><path class="cls-2" d="M72.47,106.36c-1.88,19.63-3.19,39.31-5.8,58.87" transform="translate(-15.32 -11.08)"/><line class="cls-2" x1="89.83" y1="154.17" x2="80.73" y2="95.7"/><line class="cls-2" x1="59.25" y1="155.23" x2="65.66" y2="103.61"/><line class="cls-2" x1="73.45" y1="103.63" x2="81.59" y2="155.22"/><line class="cls-2" x1="63.3" y1="119.77" x2="76.01" y2="119.77"/><line class="cls-1" x1="62.27" y1="128.01" x2="77.26" y2="128.01"/><line class="cls-1" x1="50.71" y1="154.7" x2="59.85" y2="154.7"/><line class="cls-1" x1="80.98" y1="154.72" x2="90.45" y2="154.69"/><rect class="cls-2" x="106.34" y="96.58" width="8.33" height="59.25"/><rect class="cls-2" x="114.66" y="96.59" width="29.79" height="8.33"/><rect class="cls-2" x="114.66" y="122.05" width="29.79" height="8.33"/><rect class="cls-2" x="114.66" y="147.5" width="29.79" height="8.33"/><rect class="cls-2" x="291.42" y="95.85" width="8.33" height="61.62"/><path class="cls-2" d="M362,169.62c-46.39,1.25-31.81-65.34.6-63.67" transform="translate(-15.32 -11.08)"/><line class="cls-2" x1="345.67" y1="158.53" x2="357.98" y2="158.53"/><line class="cls-2" x1="349.05" y1="158.93" x2="349.05" y2="132.37"/><line class="cls-2" x1="357.6" y1="158.93" x2="357.6" y2="132.77"/><line class="cls-2" x1="348.68" y1="132.77" x2="357.99" y2="132.77"/><line class="cls-2" x1="347.3" y1="103.16" x2="347.33" y2="93.84"/><rect class="cls-2" x="180.14" y="105.51" width="8.33" height="53.42"/><rect class="cls-2" x="159.43" y="96.76" width="50.26" height="8.33"/><rect class="cls-2" x="244.71" y="105.68" width="8.33" height="53.42"/><rect class="cls-2" x="224.01" y="96.93" width="50.26" height="8.33"/><rect class="cls-2" x="0.5" y="2.97" width="8.33" height="59.25"/><path class="cls-1" d="M23.19,73.42c46.39,1.17,31.81-60.81-.6-59.25" transform="translate(-15.32 -11.08)"/><line class="cls-1" x1="78.74" y1="2.73" x2="53.85" y2="2.77"/><line class="cls-2" x1="54.19" y1="10.83" x2="79.38" y2="10.83"/><path class="cls-2" d="M69.84,13.28C68,32.91,66.64,52.59,64,72.15" transform="translate(-15.32 -11.08)"/><line class="cls-2" x1="87.2" y1="61.09" x2="78.1" y2="2.62"/><line class="cls-2" x1="56.62" y1="62.14" x2="63.02" y2="10.53"/><line class="cls-2" x1="70.82" y1="10.55" x2="78.96" y2="62.13"/><line class="cls-2" x1="60.67" y1="26.69" x2="73.38" y2="26.69"/><line class="cls-2" x1="59.64" y1="34.93" x2="74.63" y2="34.93"/><line class="cls-2" x1="48.08" y1="61.62" x2="57.22" y2="61.62"/><line class="cls-2" x1="78.34" y1="61.64" x2="87.81" y2="61.61"/><rect class="cls-2" x="104.64" y="0.89" width="8.33" height="59.25"/><rect class="cls-2" x="135.91" y="0.89" width="8.33" height="59.25"/><line class="cls-3" x1="113.1" y1="18.69" x2="135.8" y2="60.38"/><line class="cls-3" x1="113.23" y1="0.72" x2="135.67" y2="43.44"/><rect class="cls-2" x="161.06" y="1.8" width="8.33" height="59.25"/><rect class="cls-2" x="186.2" y="0.88" width="8.32" height="59.25"/><rect class="cls-2" x="194.53" y="0.89" width="29.79" height="8.33"/><rect class="cls-2" x="194.53" y="26.35" width="29.79" height="8.33"/><rect class="cls-2" x="194.53" y="51.8" width="29.79" height="8.33"/><rect class="cls-2" x="242.34" y="0.88" width="8.33" height="60.49"/><rect class="cls-2" x="277.39" y="52.6" width="8.59" height="31.11" transform="translate(196.7 338.39) rotate(-89.69)"/><line class="cls-4" x1="330.95" y1="0.5" x2="306.07" y2="0.54"/><line class="cls-2" x1="306.07" y1="9.17" x2="331.26" y2="9.17"/><path class="cls-2" d="M321.72,11.62c-1.88,19.62-3.2,39.31-5.8,58.86" transform="translate(-15.32 -11.08)"/><line class="cls-2" x1="339.08" y1="59.43" x2="329.98" y2="0.96"/><line class="cls-2" x1="308.5" y1="60.48" x2="314.9" y2="8.86"/><line class="cls-2" x1="322.7" y1="8.88" x2="330.84" y2="60.47"/><line class="cls-2" x1="312.55" y1="25.02" x2="325.26" y2="25.02"/><line class="cls-2" x1="311.52" y1="33.27" x2="326.51" y2="33.27"/><line class="cls-2" x1="299.96" y1="59.96" x2="309.1" y2="59.96"/><line class="cls-2" x1="330.22" y1="59.97" x2="339.69" y2="59.95"/><path class="cls-2" d="M364.61,159.78c-33.77,3.88-26-44.85-2.28-45.73" transform="translate(-15.32 -11.08)"/></svg>