<svg id="Layer_1" data-name="Layer 1" xmlns="http://www.w3.org/2000/svg" viewBox="0 0 383.61 179.68"><defs><style>.cls-1,.cls-2{fill:none;}.cls-1,.cls-2,.cls-3,.cls-4{stroke:#000;stroke-miterlimit:10;}.cls-2{stroke-width:0.75px;}.cls-3{fill:#231f20;}.cls-4{fill:#fff;}</style></defs><title>logoName</title><path class="cls-1" d="M42.13,130c7.12-5.8,11.17-15.88,3.62-23.25-6.29-6.15-16.23-6.1-24.33-5.66" transform="translate(0.5 0.5)"/><rect class="cls-1" x="13.69" y="101.46" width="8.33" height="60.96"/><path class="cls-1" d="M21.65,161.89c8.81.34,18.89-1.93,24.72-9.29,6.09-7.69,3.72-17.85-4.33-22.86" transform="translate(0.5 0.5)"/><line class="cls-1" x1="94.56" y1="102.37" x2="69.67" y2="102.41"/><line class="cls-1" x1="70.01" y1="110.46" x2="95.2" y2="110.46"/><path class="cls-1" d="M69.84,101.34C68,121,66.64,140.64,64,160.2" transform="translate(0.5 0.5)"/><line class="cls-1" x1="103.02" y1="160.73" x2="93.92" y2="102.26"/><line class="cls-1" x1="72.44" y1="161.78" x2="78.84" y2="110.16"/><line class="cls-1" x1="86.64" y1="110.18" x2="94.78" y2="161.77"/><line class="cls-1" x1="76.49" y1="126.32" x2="89.2" y2="126.32"/><line class="cls-1" x1="75.46" y1="134.57" x2="90.45" y2="134.57"/><line class="cls-1" x1="63.9" y1="161.26" x2="73.04" y2="161.26"/><line class="cls-1" x1="94.16" y1="161.27" x2="103.63" y2="161.25"/><rect class="cls-1" x="119.52" y="103.14" width="8.33" height="59.25"/><rect class="cls-1" x="127.85" y="103.14" width="29.79" height="8.33"/><rect class="cls-1" x="127.85" y="128.6" width="29.79" height="8.33"/><rect class="cls-1" x="127.85" y="154.05" width="29.79" height="8.33"/><rect class="cls-1" x="304.61" y="102.41" width="8.33" height="61.62"/><path class="cls-1" d="M359.4,164.59c-46.39,1.25-31.81-65.34.6-63.67" transform="translate(0.5 0.5)"/><line class="cls-1" x1="358.86" y1="165.09" x2="371.16" y2="165.09"/><line class="cls-1" x1="362.24" y1="165.49" x2="362.24" y2="138.92"/><line class="cls-1" x1="370.79" y1="165.49" x2="370.79" y2="139.33"/><line class="cls-1" x1="361.87" y1="139.33" x2="371.18" y2="139.33"/><line class="cls-1" x1="360.77" y1="110.04" x2="360.81" y2="100.71"/><rect class="cls-1" x="193.33" y="112.07" width="8.33" height="53.42"/><rect class="cls-1" x="172.62" y="103.31" width="50.26" height="8.33"/><rect class="cls-1" x="257.9" y="112.23" width="8.33" height="53.42"/><rect class="cls-1" x="237.19" y="103.48" width="50.26" height="8.33"/><rect class="cls-1" x="16.32" y="15.26" width="8.33" height="59.25"/><path class="cls-1" d="M23.19,74.12c46.39,1.17,31.81-60.8-.6-59.25" transform="translate(0.5 0.5)"/><line class="cls-1" x1="94.56" y1="15.02" x2="69.67" y2="15.06"/><line class="cls-1" x1="70.01" y1="23.12" x2="95.2" y2="23.12"/><path class="cls-1" d="M69.84,14C68,33.61,66.64,53.3,64,72.85" transform="translate(0.5 0.5)"/><line class="cls-1" x1="103.02" y1="73.38" x2="93.92" y2="14.91"/><line class="cls-1" x1="72.44" y1="74.43" x2="78.84" y2="22.82"/><line class="cls-1" x1="86.64" y1="22.83" x2="94.78" y2="74.42"/><line class="cls-1" x1="76.49" y1="38.98" x2="89.2" y2="38.98"/><line class="cls-1" x1="75.46" y1="47.22" x2="90.45" y2="47.22"/><line class="cls-1" x1="63.9" y1="73.91" x2="73.04" y2="73.91"/><line class="cls-1" x1="94.16" y1="73.92" x2="103.63" y2="73.9"/><rect class="cls-1" x="120.45" y="13.17" width="8.33" height="59.25"/><rect class="cls-1" x="151.73" y="13.17" width="8.33" height="59.25"/><line class="cls-2" x1="128.92" y1="30.98" x2="151.62" y2="72.66"/><line class="cls-2" x1="129.05" y1="13.01" x2="151.49" y2="55.72"/><rect class="cls-1" x="176.88" y="14.09" width="8.33" height="59.25"/><rect class="cls-1" x="202.02" y="13.17" width="8.32" height="59.25"/><rect class="cls-1" x="210.35" y="13.18" width="29.79" height="8.33"/><rect class="cls-1" x="210.35" y="38.63" width="29.79" height="8.33"/><rect class="cls-1" x="210.35" y="64.09" width="29.79" height="8.33"/><rect class="cls-1" x="258.16" y="13.17" width="8.33" height="60.49"/><rect class="cls-1" x="277.39" y="53.31" width="8.59" height="31.11" transform="translate(211.81 350.67) rotate(-89.69)"/><line class="cls-3" x1="346.77" y1="12.79" x2="321.89" y2="12.82"/><line class="cls-4" x1="321.89" y1="21.45" x2="347.07" y2="21.45"/><path class="cls-4" d="M321.72,12.32c-1.88,19.63-3.2,39.31-5.8,58.87" transform="translate(0.5 0.5)"/><line class="cls-4" x1="354.9" y1="71.72" x2="345.8" y2="13.25"/><line class="cls-4" x1="324.32" y1="72.77" x2="330.72" y2="21.15"/><line class="cls-4" x1="338.52" y1="21.17" x2="346.66" y2="72.76"/><line class="cls-4" x1="328.37" y1="37.31" x2="341.08" y2="37.31"/><line class="cls-4" x1="327.34" y1="45.56" x2="342.33" y2="45.56"/><line class="cls-4" x1="315.78" y1="72.25" x2="324.92" y2="72.25"/><line class="cls-4" x1="346.04" y1="72.26" x2="355.51" y2="72.24"/><path class="cls-1" d="M362,154.76c-33.77,3.87-26-44.85-2.28-45.74" transform="translate(0.5 0.5)"/><rect class="cls-1" x="0.5" y="0.5" width="382.61" height="178.68"/></svg>